<?xml version="1.0" encoding="UTF-8" standalone="no"?>
<svg width="64px" height="64px" viewBox="0 0 315 64" version="1.1" xmlns="http://www.w3.org/2000/svg" xmlns:xlink="http://www.w3.org/1999/xlink">
    <!-- Generator: Sketch 46.2 (44496) - http://www.bohemiancoding.com/sketch -->
    <title>Logo</title>
    <desc>Created with Sketch.</desc>
    <defs></defs>
    <g id="Page-1" stroke="none" stroke-width="1" fill="none" fill-rule="evenodd">
        <g id="Logo" transform="translate(0.000000, -6.000000)" fill="#000">

            <path d="M40.1018258,46.3892617 C37.0301966,46.3892617 35.5797051,48.614094 35.323736,50.5822148 C35.323736,50.6677852 35.409059,50.7533557 35.494382,50.7533557 L44.7945927,50.7533557 C44.8799157,50.7533557 44.9652388,50.6677852 44.9652388,50.5822148 C44.7092697,48.6996644 43.4294242,46.3892617 40.1018258,46.3892617 Z M59.9820927,15.2416107 L40.2724719,37.4043624 C40.0165028,37.6610738 39.5898876,37.6610738 39.4192416,37.4043624 L29.3511236,26.9647651 C29.1804775,26.7936242 29.0951545,26.4513423 29.2658006,26.1946309 L32.5933989,21.9161074 C32.849368,21.5738255 33.2759831,21.5738255 33.5319522,21.8305369 L39.0779494,28.0771812 C39.3339185,28.3338926 39.7605337,28.3338926 40.0165028,28.0771812 L55.8865871,6.68456376 C56.0572331,6.42785235 55.8865871,6 55.5452949,6 L0.426615169,6 C0.170646067,6 0,6.17114094 0,6.42785235 L0,69.3221477 C0,69.5788591 0.170646067,69.75 0.426615169,69.75 L60.3233848,69.75 C60.5793539,69.75 60.75,69.5788591 60.75,69.3221477 L60.75,15.4127517 C60.75,15.1560403 60.2380618,14.8993289 59.9820927,15.2416107 Z M16.8939607,62.8187919 C12.1158708,62.8187919 8.6176264,61.2785235 6.14325843,58.9681208 C5.97261236,58.7969799 5.88728933,58.454698 6.05793539,58.1979866 L8.3616573,54.9463087 C8.53230337,54.6895973 8.95891854,54.6040268 9.21488764,54.8607383 C11.0919944,56.5721477 13.7370084,57.9412752 17.0646067,57.9412752 C20.136236,57.9412752 21.6720506,56.4865772 21.6720506,55.0318792 C21.6720506,50.4110738 6.5698736,53.5771812 6.5698736,43.6510067 C6.5698736,39.2869128 10.3240871,35.6073826 16.5526685,35.6073826 C20.4775281,35.6073826 23.8051264,36.7197987 26.3648174,38.9446309 C26.6207865,39.1157718 26.6207865,39.4580537 26.4501404,39.7147651 L24.0610955,42.8808725 C23.8904494,43.1375839 23.4638343,43.2231544 23.2078652,42.966443 C21.1601124,41.2550336 18.5150983,40.4848993 16.0407303,40.4848993 C13.6516854,40.4848993 12.2865169,41.511745 12.2865169,43.1375839 C12.2865169,47.3305369 27.3886938,44.5067114 27.3886938,54.3473154 C27.3886938,59.2248322 23.9757725,62.8187919 16.8939607,62.8187919 Z M49.9139747,53.7483221 C49.9139747,54.0050336 49.6580056,54.261745 49.4020365,54.261745 L35.5797051,54.261745 C35.494382,54.261745 35.409059,54.3473154 35.409059,54.4328859 C35.8356742,56.8288591 37.7981039,58.7969799 41.0403792,58.7969799 C42.4908708,58.7969799 44.5386236,58.1979866 45.8184691,57.1711409 C46.0744382,57 46.4157303,57 46.5863764,57.2567114 L48.2928371,59.738255 C48.4634831,59.9949664 48.3781601,60.2516779 48.207514,60.4228188 C46.2450843,61.9630872 43.3441011,62.8187919 40.528441,62.8187919 C34.5558287,62.8187919 30.1190309,58.7969799 30.1190309,52.5503356 C30.1190309,46.9026846 34.2998596,42.2818792 40.1871489,42.2818792 C45.9891152,42.2818792 49.9992978,46.6459732 49.9992978,53.0637584 L49.9992978,53.7483221 L49.9139747,53.7483221 Z" id="Shape" fill-rule="nonzero"></path>
        </g>
    </g>
</svg>